<?xml version="1.0" encoding="UTF-8" standalone="no"?>
<!-- Created with Inkscape (http://www.inkscape.org/) -->

<svg
   xmlns:dc="http://purl.org/dc/elements/1.1/"
   xmlns:cc="http://creativecommons.org/ns#"
   xmlns:rdf="http://www.w3.org/1999/02/22-rdf-syntax-ns#"
   xmlns:svg="http://www.w3.org/2000/svg"
   xmlns="http://www.w3.org/2000/svg"
   xmlns:sodipodi="http://sodipodi.sourceforge.net/DTD/sodipodi-0.dtd"
   xmlns:inkscape="http://www.inkscape.org/namespaces/inkscape"
   width="288.57794"
   height="49.846123"
   id="svg3244"
   version="1.1"
   inkscape:version="0.47 r22583"
   sodipodi:docname="Nouveau document 4">
  <defs
     id="defs3246">
    <inkscape:perspective
       sodipodi:type="inkscape:persp3d"
       inkscape:vp_x="0 : 526.18109 : 1"
       inkscape:vp_y="0 : 1000 : 0"
       inkscape:vp_z="744.09448 : 526.18109 : 1"
       inkscape:persp3d-origin="372.04724 : 350.78739 : 1"
       id="perspective3252" />
    <inkscape:perspective
       id="perspective3174"
       inkscape:persp3d-origin="0.5 : 0.33333333 : 1"
       inkscape:vp_z="1 : 0.5 : 1"
       inkscape:vp_y="0 : 1000 : 0"
       inkscape:vp_x="0 : 0.5 : 1"
       sodipodi:type="inkscape:persp3d" />
    <clipPath
       clipPathUnits="userSpaceOnUse"
       id="clipPath2866">
      <path
         d="m 461.48,27.783 84.189,0 0,14.542 -84.189,0 0,-14.542 z"
         id="path2868" />
    </clipPath>
  </defs>
  <sodipodi:namedview
     id="base"
     pagecolor="#ffffff"
     bordercolor="#666666"
     borderopacity="1.0"
     inkscape:pageopacity="0.0"
     inkscape:pageshadow="2"
     inkscape:zoom="1.979899"
     inkscape:cx="80.34721"
     inkscape:cy="-31.814357"
     inkscape:document-units="px"
     inkscape:current-layer="layer1"
     showgrid="false"
     inkscape:window-width="1366"
     inkscape:window-height="706"
     inkscape:window-x="-8"
     inkscape:window-y="-8"
     inkscape:window-maximized="1" />
  <metadata
     id="metadata3249">
    <rdf:RDF>
      <cc:Work
         rdf:about="">
        <dc:format>image/svg+xml</dc:format>
        <dc:type
           rdf:resource="http://purl.org/dc/dcmitype/StillImage" />
        <dc:title></dc:title>
      </cc:Work>
    </rdf:RDF>
  </metadata>
  <g
     inkscape:label="Calque 1"
     inkscape:groupmode="layer"
     id="layer1"
     transform="translate(-110.23951,-637.55925)">
    <g
       transform="matrix(3.1846434,0,0,-3.1846434,-1349.178,774.11655)"
       id="g2862">
      <g
         id="g2864"
         clip-path="url(#clipPath2866)">
        <g
           id="g2870"
           transform="translate(510.9177,35.9281)">
          <path
             d="m 0,0 c -0.292,-0.457 -0.73,-0.788 -1.537,-0.788 l -0.477,0 c -1.109,0 -1.809,0.71 -1.809,1.722 l 0,2.88 c 0,1.011 0.7,1.721 1.809,1.721 l 0.477,0 C -0.73,5.535 -0.292,5.205 0,4.748 0.088,4.602 0.185,4.446 0.185,4.387 0.185,4.358 0.165,4.339 0.126,4.319 L -0.652,3.921 C -0.691,3.901 -0.73,3.872 -0.769,3.872 c -0.029,0 -0.058,0.019 -0.077,0.068 -0.175,0.418 -0.428,0.574 -0.691,0.574 l -0.477,0 c -0.379,0 -0.7,-0.321 -0.7,-0.7 l 0,-2.88 c 0,-0.379 0.321,-0.701 0.7,-0.701 l 0.477,0 c 0.263,0 0.516,0.156 0.691,0.574 0.019,0.049 0.048,0.069 0.077,0.069 0.039,0 0.078,-0.03 0.117,-0.049 L 0.126,0.428 C 0.165,0.409 0.185,0.389 0.185,0.36 0.185,0.302 0.088,0.146 0,0"
             style="fill:#3b464e;fill-opacity:1;fill-rule:nonzero;stroke:none"
             id="path2872" />
        </g>
        <g
           id="g2874"
           transform="translate(515.8602,35.2374)">
          <path
             d="m 0,0 -3.434,0 c -0.068,0 -0.097,0.029 -0.097,0.097 l 0,5.935 c 0,0.068 0.029,0.097 0.097,0.097 l 3.434,0 c 0.068,0 0.097,-0.029 0.097,-0.097 l 0,-0.827 C 0.097,5.137 0.068,5.107 0,5.107 l -2.315,0 c -0.068,0 -0.097,-0.029 -0.097,-0.097 l 0,-1.294 c 0,-0.068 0.029,-0.097 0.097,-0.097 l 1.897,0 c 0.068,0 0.097,-0.029 0.097,-0.097 l 0,-0.827 c 0,-0.068 -0.029,-0.097 -0.097,-0.097 l -1.897,0 c -0.068,0 -0.097,-0.03 -0.097,-0.098 l 0,-1.381 c 0,-0.068 0.029,-0.098 0.097,-0.098 l 2.315,0 c 0.068,0 0.097,-0.029 0.097,-0.097 l 0,-0.827 C 0.097,0.029 0.068,0 0,0"
             style="fill:#3b464e;fill-opacity:1;fill-rule:nonzero;stroke:none"
             id="path2876" />
        </g>
        <g
           id="g2878"
           transform="translate(521.3087,35.2374)">
          <path
             d="M 0,0 -0.807,0 C -0.846,0 -0.876,0.02 -0.895,0.049 L -2.636,3.22 C -2.675,3.288 -2.811,3.638 -2.841,3.716 L -2.88,3.707 c 0.02,-0.234 0.059,-1.635 0.059,-2.403 l 0,-1.207 C -2.821,0.029 -2.85,0 -2.919,0 L -3.843,0 C -3.911,0 -3.94,0.029 -3.94,0.097 l 0,5.935 c 0,0.068 0.029,0.097 0.097,0.097 l 0.818,0 c 0.038,0 0.068,-0.02 0.087,-0.049 l 1.741,-3.191 c 0.039,-0.068 0.175,-0.418 0.205,-0.496 l 0.039,0.01 c -0.02,0.233 -0.059,1.634 -0.059,2.403 l 0,1.226 c 0,0.068 0.03,0.097 0.098,0.097 l 0.914,0 c 0.068,0 0.097,-0.029 0.097,-0.097 l 0,-5.935 C 0.097,0.029 0.068,0 0,0"
             style="fill:#3b464e;fill-opacity:1;fill-rule:nonzero;stroke:none"
             id="path2880" />
        </g>
        <g
           id="g2882"
           transform="translate(526.125,40.3448)">
          <path
             d="m 0,0 -1.06,0 c -0.069,0 -0.098,-0.029 -0.098,-0.097 l 0,-4.913 c 0,-0.068 -0.029,-0.097 -0.097,-0.097 l -0.914,0 c -0.069,0 -0.098,0.029 -0.098,0.097 l 0,4.913 C -2.267,-0.029 -2.296,0 -2.364,0 l -1.06,0 c -0.069,0 -0.098,0.029 -0.098,0.097 l 0,0.827 c 0,0.068 0.029,0.097 0.098,0.097 l 3.424,0 c 0.068,0 0.097,-0.029 0.097,-0.097 l 0,-0.827 C 0.097,0.029 0.068,0 0,0"
             style="fill:#3b464e;fill-opacity:1;fill-rule:nonzero;stroke:none"
             id="path2884" />
        </g>
        <g
           id="g2886"
           transform="translate(530.3961,39.6444)">
          <path
             d="m 0,0 c 0,0.379 -0.321,0.7 -0.7,0.7 l -1.071,0 c -0.068,0 -0.097,-0.029 -0.097,-0.097 l 0,-1.294 c 0,-0.068 0.029,-0.097 0.097,-0.097 l 1.071,0 c 0.379,0 0.7,0.321 0.7,0.7 L 0,0 z m 1.119,-4.407 -1.002,0 c -0.039,0 -0.078,0.029 -0.088,0.068 l -0.856,2.471 c -0.01,0.039 -0.039,0.059 -0.078,0.059 l -0.866,0 c -0.068,0 -0.097,-0.03 -0.097,-0.098 l 0,-2.403 c 0,-0.068 -0.029,-0.097 -0.097,-0.097 l -0.924,0 c -0.069,0 -0.098,0.029 -0.098,0.097 l 0,5.935 c 0,0.068 0.029,0.097 0.098,0.097 l 2.189,0 c 1.109,0 1.809,-0.71 1.809,-1.81 l 0,-0.097 c 0,-0.496 -0.418,-1.07 -0.788,-1.323 -0.029,-0.019 -0.039,-0.039 -0.039,-0.078 0,-0.029 0.019,-0.078 0.049,-0.155 l 0.836,-2.432 c 0.02,-0.069 0.049,-0.127 0.049,-0.156 0,-0.049 -0.029,-0.078 -0.097,-0.078"
             style="fill:#3b464e;fill-opacity:1;fill-rule:nonzero;stroke:none"
             id="path2888" />
        </g>
        <g
           id="g2890"
           transform="translate(534.8716,37.6792)">
          <path
             d="m 0,0 -0.282,1.138 c -0.02,0.068 -0.088,0.457 -0.107,0.535 l -0.029,0 C -0.438,1.595 -0.516,1.216 -0.535,1.138 L -0.827,0.01 c -0.019,-0.068 -0.049,-0.156 -0.049,-0.195 0,-0.048 0.039,-0.087 0.107,-0.087 l 0.711,0 c 0.068,0 0.107,0.039 0.107,0.087 C 0.049,-0.146 0.02,-0.058 0,0 m 1.751,-2.442 -0.982,0 c -0.049,0 -0.088,0.02 -0.098,0.068 L 0.379,-1.352 C 0.37,-1.304 0.331,-1.294 0.282,-1.294 l -1.391,0 c -0.049,0 -0.088,-0.01 -0.097,-0.058 l -0.292,-1.022 c -0.01,-0.048 -0.049,-0.068 -0.097,-0.068 l -0.973,0 c -0.068,0 -0.107,0.029 -0.107,0.078 0,0.039 0.029,0.097 0.048,0.175 l 1.771,5.808 c 0.01,0.049 0.049,0.068 0.097,0.068 l 0.701,0 c 0.048,0 0.087,-0.019 0.097,-0.068 L 1.81,-2.189 c 0.019,-0.058 0.048,-0.136 0.048,-0.175 0,-0.049 -0.039,-0.078 -0.107,-0.078"
             style="fill:#3b464e;fill-opacity:1;fill-rule:nonzero;stroke:none"
             id="path2892" />
        </g>
        <g
           id="g2894"
           transform="translate(541.2247,35.2374)">
          <path
             d="m 0,0 -3.434,0 c -0.068,0 -0.097,0.029 -0.097,0.097 l 0,5.935 c 0,0.068 0.029,0.097 0.097,0.097 l 0.924,0 c 0.068,0 0.097,-0.029 0.097,-0.097 l 0,-4.913 c 0,-0.068 0.029,-0.098 0.098,-0.098 l 2.315,0 c 0.068,0 0.098,-0.029 0.098,-0.097 l 0,-0.827 C 0.098,0.029 0.068,0 0,0"
             style="fill:#3b464e;fill-opacity:1;fill-rule:nonzero;stroke:none"
             id="path2896" />
        </g>
        <g
           id="g2898"
           transform="translate(546.0311,35.2374)">
          <path
             d="m 0,0 -3.434,0 c -0.068,0 -0.097,0.029 -0.097,0.097 l 0,5.935 c 0,0.068 0.029,0.097 0.097,0.097 l 3.434,0 c 0.068,0 0.098,-0.029 0.098,-0.097 l 0,-0.827 C 0.098,5.137 0.068,5.107 0,5.107 l -2.315,0 c -0.068,0 -0.097,-0.029 -0.097,-0.097 l 0,-1.294 c 0,-0.068 0.029,-0.097 0.097,-0.097 l 1.897,0 c 0.068,0 0.097,-0.029 0.097,-0.097 l 0,-0.827 c 0,-0.068 -0.029,-0.097 -0.097,-0.097 l -1.897,0 c -0.068,0 -0.097,-0.03 -0.097,-0.098 l 0,-1.381 c 0,-0.068 0.029,-0.098 0.097,-0.098 l 2.315,0 c 0.068,0 0.098,-0.029 0.098,-0.097 l 0,-0.827 C 0.098,0.029 0.068,0 0,0"
             style="fill:#3b464e;fill-opacity:1;fill-rule:nonzero;stroke:none"
             id="path2900" />
        </g>
        <g
           id="g2902"
           transform="translate(512.0073,28.1615)">
          <path
             d="m 0,0 -0.564,0 c -0.068,0 -0.097,0.029 -0.097,0.097 l 0,2.004 c 0,0.924 0.038,1.761 0.087,2.257 l -0.039,0.01 C -0.652,4.222 -0.759,3.901 -0.856,3.687 L -2.082,0.953 C -2.101,0.914 -2.131,0.895 -2.169,0.895 l -0.263,0 c -0.039,0 -0.068,0.019 -0.087,0.058 L -3.736,3.687 C -3.823,3.882 -3.93,4.174 -3.979,4.368 L -4.018,4.358 C -3.959,3.843 -3.93,3.045 -3.93,2.101 l 0,-2.004 C -3.93,0.029 -3.959,0 -4.027,0 L -4.592,0 C -4.66,0 -4.689,0.029 -4.689,0.097 l 0,5.934 c 0,0.069 0.029,0.098 0.097,0.098 l 0.535,0 c 0.039,0 0.068,-0.02 0.088,-0.059 l 1.527,-3.589 c 0.029,-0.059 0.107,-0.312 0.127,-0.389 l 0.029,0 c 0.019,0.077 0.107,0.321 0.136,0.389 l 1.527,3.589 c 0.02,0.039 0.049,0.059 0.088,0.059 l 0.535,0 c 0.068,0 0.097,-0.029 0.097,-0.098 l 0,-5.934 C 0.097,0.029 0.068,0 0,0"
             style="fill:#3b464e;fill-opacity:1;fill-rule:nonzero;stroke:none"
             id="path2904" />
        </g>
        <g
           id="g2906"
           transform="translate(515.199,32.5586)">
          <path
             d="m 0,0 c -0.088,0.35 -0.136,0.7 -0.136,0.7 l -0.029,0 c 0,0 -0.049,-0.34 -0.146,-0.7 l -0.584,-2.16 c -0.019,-0.068 0.01,-0.126 0.097,-0.126 l 1.255,0 c 0.088,0 0.117,0.058 0.098,0.126 L 0,0 z m 1.887,-4.397 -0.613,0 c -0.048,0 -0.087,0.019 -0.097,0.068 l -0.37,1.313 C 0.798,-2.967 0.759,-2.957 0.71,-2.957 l -1.751,0 c -0.049,0 -0.088,-0.01 -0.097,-0.059 l -0.37,-1.313 c -0.01,-0.049 -0.049,-0.068 -0.097,-0.068 l -0.564,0 c -0.088,0 -0.117,0.048 -0.098,0.126 l 1.81,5.934 c 0.01,0.049 0.048,0.069 0.097,0.069 l 0.447,0 c 0.049,0 0.088,-0.02 0.098,-0.069 L 1.984,-4.271 C 2.004,-4.349 1.975,-4.397 1.887,-4.397"
             style="fill:#3b464e;fill-opacity:1;fill-rule:nonzero;stroke:none"
             id="path2908" />
        </g>
        <g
           id="g2910"
           transform="translate(520.9878,32.6655)">
          <path
             d="m 0,0 c 0,0.516 -0.428,0.953 -0.963,0.953 l -1.158,0 c -0.068,0 -0.097,-0.029 -0.097,-0.097 l 0,-1.819 c 0,-0.068 0.029,-0.097 0.097,-0.097 l 1.158,0 C -0.438,-1.06 0,-0.632 0,-0.097 L 0,0 z m 0.7,-4.504 -0.642,0 c -0.039,0 -0.078,0.029 -0.087,0.068 l -0.915,2.646 c -0.009,0.039 -0.039,0.058 -0.078,0.058 l -1.099,0 c -0.068,0 -0.097,-0.029 -0.097,-0.097 l 0,-2.578 c 0,-0.068 -0.029,-0.097 -0.097,-0.097 l -0.565,0 c -0.068,0 -0.097,0.029 -0.097,0.097 l 0,5.934 c 0,0.069 0.029,0.098 0.097,0.098 l 1.917,0 c 1.051,0 1.722,-0.672 1.722,-1.722 l 0,-0.098 c 0,-0.505 -0.458,-1.118 -0.886,-1.303 -0.048,-0.019 -0.068,-0.058 -0.048,-0.107 l 0.963,-2.773 c 0.029,-0.077 0,-0.126 -0.088,-0.126"
             style="fill:#3b464e;fill-opacity:1;fill-rule:nonzero;stroke:none"
             id="path2912" />
        </g>
        <g
           id="g2914"
           transform="translate(524.5681,28.0642)">
          <path
             d="m 0,0 -0.418,0 c -0.506,0 -0.856,0.126 -1.109,0.33 -0.185,0.146 -0.321,0.331 -0.428,0.536 -0.029,0.058 -0.02,0.107 0.039,0.136 l 0.505,0.263 c 0.059,0.029 0.107,0.009 0.137,-0.049 0.194,-0.36 0.525,-0.545 0.856,-0.545 l 0.418,0 c 0.525,0 0.963,0.419 0.963,0.953 0,0.652 -0.593,0.934 -1.245,1.226 -0.749,0.341 -1.596,0.72 -1.596,1.849 0,0.934 0.691,1.624 1.722,1.624 L 0,6.323 C 0.574,6.323 0.963,6.148 1.226,5.895 1.362,5.769 1.459,5.623 1.547,5.467 1.576,5.409 1.557,5.36 1.498,5.331 L 0.983,5.078 C 0.934,5.049 0.895,5.068 0.866,5.117 0.662,5.467 0.331,5.652 0,5.652 l -0.156,0 c -0.583,0 -0.953,-0.389 -0.953,-0.953 0,-0.584 0.632,-0.847 1.323,-1.158 C 0.944,3.21 1.722,2.772 1.722,1.624 1.722,0.671 1.061,0 0,0"
             style="fill:#3b464e;fill-opacity:1;fill-rule:nonzero;stroke:none"
             id="path2916" />
        </g>
        <g
           id="g2918"
           transform="translate(530.8337,28.1615)">
          <path
             d="m 0,0 -3.249,0 c -0.068,0 -0.097,0.029 -0.097,0.097 l 0,5.934 c 0,0.069 0.029,0.098 0.097,0.098 l 3.249,0 c 0.068,0 0.097,-0.029 0.097,-0.098 l 0,-0.476 C 0.097,5.487 0.068,5.457 0,5.457 l -2.49,0 c -0.069,0 -0.098,-0.029 -0.098,-0.097 l 0,-1.819 c 0,-0.068 0.029,-0.097 0.098,-0.097 l 2.043,0 c 0.068,0 0.097,-0.03 0.097,-0.098 l 0,-0.476 c 0,-0.068 -0.029,-0.098 -0.097,-0.098 l -2.043,0 c -0.069,0 -0.098,-0.029 -0.098,-0.097 l 0,-1.907 c 0,-0.068 0.029,-0.097 0.098,-0.097 l 2.49,0 c 0.068,0 0.097,-0.029 0.097,-0.097 l 0,-0.477 C 0.097,0.029 0.068,0 0,0"
             style="fill:#3b464e;fill-opacity:1;fill-rule:nonzero;stroke:none"
             id="path2920" />
        </g>
        <g
           id="g2922"
           transform="translate(532.6339,28.1615)">
          <path
             d="m 0,0 -0.564,0 c -0.068,0 -0.097,0.029 -0.097,0.097 l 0,5.934 c 0,0.069 0.029,0.098 0.097,0.098 l 0.564,0 c 0.068,0 0.097,-0.029 0.097,-0.098 l 0,-5.934 C 0.097,0.029 0.068,0 0,0"
             style="fill:#3b464e;fill-opacity:1;fill-rule:nonzero;stroke:none"
             id="path2924" />
        </g>
        <g
           id="g2926"
           transform="translate(537.5569,28.1615)">
          <path
             d="m 0,0 -3.249,0 c -0.068,0 -0.097,0.029 -0.097,0.097 l 0,5.934 c 0,0.069 0.029,0.098 0.097,0.098 l 0.564,0 c 0.068,0 0.097,-0.029 0.097,-0.098 l 0,-5.263 c 0,-0.068 0.029,-0.097 0.097,-0.097 l 2.491,0 c 0.068,0 0.097,-0.029 0.097,-0.097 l 0,-0.477 C 0.097,0.029 0.068,0 0,0"
             style="fill:#3b464e;fill-opacity:1;fill-rule:nonzero;stroke:none"
             id="path2928" />
        </g>
        <g
           id="g2930"
           transform="translate(541.7987,28.1615)">
          <path
             d="m 0,0 -3.249,0 c -0.068,0 -0.097,0.029 -0.097,0.097 l 0,5.934 c 0,0.069 0.029,0.098 0.097,0.098 l 0.564,0 c 0.068,0 0.097,-0.029 0.097,-0.098 l 0,-5.263 c 0,-0.068 0.029,-0.097 0.098,-0.097 l 2.49,0 c 0.068,0 0.097,-0.029 0.097,-0.097 l 0,-0.477 C 0.097,0.029 0.068,0 0,0"
             style="fill:#3b464e;fill-opacity:1;fill-rule:nonzero;stroke:none"
             id="path2932" />
        </g>
        <g
           id="g2934"
           transform="translate(546.0408,28.1615)">
          <path
             d="m 0,0 -3.249,0 c -0.068,0 -0.097,0.029 -0.097,0.097 l 0,5.934 c 0,0.069 0.029,0.098 0.097,0.098 l 3.249,0 c 0.068,0 0.098,-0.029 0.098,-0.098 l 0,-0.476 C 0.098,5.487 0.068,5.457 0,5.457 l -2.49,0 c -0.069,0 -0.098,-0.029 -0.098,-0.097 l 0,-1.819 c 0,-0.068 0.029,-0.097 0.098,-0.097 l 2.043,0 c 0.068,0 0.097,-0.03 0.097,-0.098 l 0,-0.476 c 0,-0.068 -0.029,-0.098 -0.097,-0.098 l -2.043,0 c -0.069,0 -0.098,-0.029 -0.098,-0.097 l 0,-1.907 c 0,-0.068 0.029,-0.097 0.098,-0.097 l 2.49,0 c 0.068,0 0.098,-0.029 0.098,-0.097 l 0,-0.477 C 0.098,0.029 0.068,0 0,0"
             style="fill:#3b464e;fill-opacity:1;fill-rule:nonzero;stroke:none"
             id="path2936" />
        </g>
        <g
           id="g2938"
           transform="translate(496.9326,41.5259)">
          <path
             d="M 0,0 C 0.027,-0.012 0.054,-0.024 0.082,-0.037 0.054,-0.024 0.027,-0.012 0,0"
             style="fill:#3b464e;fill-opacity:1;fill-rule:nonzero;stroke:none"
             id="path2940" />
        </g>
        <g
           id="g2942"
           transform="translate(496.6338,41.6503)">
          <path
             d="M 0,0 C 0.022,-0.008 0.043,-0.017 0.065,-0.025 0.043,-0.017 0.022,-0.008 0,0"
             style="fill:#3b464e;fill-opacity:1;fill-rule:nonzero;stroke:none"
             id="path2944" />
        </g>
        <g
           id="g2946"
           transform="translate(497.5276,41.2313)">
          <path
             d="M 0,0 C 0.039,-0.021 0.077,-0.044 0.115,-0.066 0.077,-0.044 0.039,-0.021 0,0"
             style="fill:#3b464e;fill-opacity:1;fill-rule:nonzero;stroke:none"
             id="path2948" />
        </g>
        <g
           id="g2950"
           transform="translate(497.8254,41.0581)">
          <path
             d="M 0,0 C 0,0 0,0 0.001,0 -0.002,0.002 -0.005,0.003 -0.008,0.005 -0.005,0.003 -0.002,0.002 0,0"
             style="fill:#3b464e;fill-opacity:1;fill-rule:nonzero;stroke:none"
             id="path2952" />
        </g>
        <g
           id="g2954"
           transform="translate(496.3499,41.7553)">
          <path
             d="M 0,0 C 0.01,-0.003 0.019,-0.006 0.029,-0.01 0.019,-0.006 0.01,-0.003 0,0"
             style="fill:#3b464e;fill-opacity:1;fill-rule:nonzero;stroke:none"
             id="path2956" />
        </g>
        <g
           id="g2958"
           transform="translate(497.232,41.3859)">
          <path
             d="M 0,0 C 0.031,-0.016 0.063,-0.032 0.094,-0.048 0.063,-0.032 0.031,-0.016 0,0"
             style="fill:#3b464e;fill-opacity:1;fill-rule:nonzero;stroke:none"
             id="path2960" />
        </g>
        <g
           id="g2962"
           transform="translate(499.2243,39.7379)">
          <path
             d="m 0,0 c -0.422,0.463 -0.9,0.872 -1.431,1.218 0,0 -0.002,-10e-4 -0.006,-0.002 C -0.908,0.871 -0.425,0.463 0,0"
             style="fill:#3b464e;fill-opacity:1;fill-rule:nonzero;stroke:none"
             id="path2964" />
        </g>
        <g
           id="g2966"
           transform="translate(499.8246,38.9924)">
          <path
             d="M 0,0 C -0.012,0.017 -0.024,0.035 -0.035,0.052 -0.035,0.051 -0.036,0.051 -0.037,0.051 -0.024,0.034 -0.012,0.017 0,0"
             style="fill:#3b464e;fill-opacity:1;fill-rule:nonzero;stroke:none"
             id="path2968" />
        </g>
        <g
           id="g2970"
           transform="translate(499.2574,39.7025)">
          <path
             d="M 0,0 C 0.038,-0.042 0.074,-0.086 0.111,-0.128 0.074,-0.085 0.038,-0.042 0,0"
             style="fill:#3b464e;fill-opacity:1;fill-rule:nonzero;stroke:none"
             id="path2972" />
        </g>
        <g
           id="g2974"
           transform="translate(498.8382,33.0647)">
          <path
             d="M 0,0 C 0.001,0.063 0.001,0.127 0.001,0.19 0,0.29 -0.002,0.39 -0.007,0.491 l -1.926,-0.575 c -0.077,0.018 -0.147,0.046 -0.21,0.086 0.236,-0.151 0.569,-0.146 1.049,0.014 0.425,0.141 0.733,0.283 0.956,0.426 0.029,-0.248 0.073,-0.49 0.128,-0.727 0.003,0.063 0.006,0.126 0.008,0.189 C -0.001,-0.065 -0.001,-0.032 0,0"
             style="fill:#3b464e;fill-opacity:1;fill-rule:nonzero;stroke:none"
             id="path2976" />
        </g>
        <g
           id="g2978"
           transform="translate(496.6083,33.1364)">
          <path
             d="M 0,0 C -0.023,0.022 -0.044,0.046 -0.063,0.07 -0.044,0.046 -0.023,0.022 0,0"
             style="fill:#3b464e;fill-opacity:1;fill-rule:nonzero;stroke:none"
             id="path2980" />
        </g>
        <g
           id="g2982"
           transform="translate(498.9807,33.7632)">
          <path
             d="M 0,0 -0.001,-0.001 C -0.045,0.768 -0.178,1.548 -0.4,2.319 -0.26,2.36 1.766,2.965 1.906,3.007 2.099,2.336 2.198,1.646 2.198,0.951 2.198,0.852 2.195,0.753 2.191,0.654 2.156,0.644 0,0 0,0 m -2.256,-0.674 c -0.128,0.739 -0.307,1.505 -0.531,2.279 0.138,0.042 2.097,0.627 2.237,0.668 0.221,-0.771 0.354,-1.551 0.394,-2.32 l -2.1,-0.627 z m -1.381,4.627 c 0,0 2.066,0.617 2.1,0.627 0.388,-0.666 0.704,-1.391 0.942,-2.157 L -2.832,1.755 c -0.236,0.77 -0.506,1.508 -0.805,2.198 M -5.208,1.046 c 0,0 -0.663,2.219 -0.669,2.239 l 2.088,0.623 c 0.3,-0.689 0.57,-1.428 0.806,-2.198 0,0 -2.11,-0.63 -2.225,-0.664 m -1.356,4.541 c 0.132,0.04 1.534,0.458 1.636,0.489 0.382,-0.59 0.744,-1.27 1.077,-2.024 0,0 -1.967,-0.587 -2.07,-0.618 0,0 -0.64,2.142 -0.643,2.153 M -8.142,2.771 c -0.134,0.814 -0.204,1.581 -0.208,2.283 0,0 1.621,0.484 1.636,0.488 0,0 0.641,-2.146 0.643,-2.153 L -8.142,2.771 z M -8.294,2.726 -10.373,2.105 c -0.004,0.1 -0.007,0.201 -0.008,0.302 0,0.06 0,0.121 10e-4,0.18 0.001,0.036 0.001,0.072 0.002,0.107 0.003,0.09 0.006,0.179 0.012,0.268 0.002,0.047 0.006,0.093 0.009,0.139 0.004,0.056 0.008,0.112 0.013,0.168 0.005,0.056 0.012,0.111 0.018,0.166 0.004,0.038 0.008,0.076 0.013,0.113 0.007,0.062 0.016,0.124 0.025,0.185 0.003,0.026 0.008,0.053 0.012,0.079 0.011,0.07 0.022,0.139 0.035,0.209 0,0.001 0,0.002 10e-4,0.003 0.03,0.169 0.066,0.334 0.108,0.498 0,0 1.581,0.472 1.624,0.485 l 0.003,0.001 c 0.007,-0.695 0.076,-1.452 0.208,-2.253 0.001,-0.01 0.003,-0.019 0.004,-0.029 l -0.001,0 z m -2.214,0.445 c -0.005,-0.065 -0.011,-0.132 -0.014,-0.199 -0.006,-0.092 -0.009,-0.186 -0.012,-0.281 -10e-4,-0.026 -10e-4,-0.053 -10e-4,-0.08 -10e-4,-0.054 -0.003,-0.108 -0.003,-0.163 0,-0.015 10e-4,-0.032 10e-4,-0.047 0.001,-0.114 0.004,-0.228 0.009,-0.343 l -0.002,0 -2.171,-0.649 c 0.053,0.872 0.256,1.722 0.61,2.528 0,0 1.683,0.503 1.782,0.532 l 0.003,10e-4 c -0.095,-0.398 -0.16,-0.809 -0.196,-1.23 -0.002,-0.022 -0.004,-0.046 -0.006,-0.069 m 9.142,4.131 C -1.549,7.247 -3.105,6.783 -3.105,6.783 l -10e-4,0 C -3.223,6.889 -3.343,6.989 -3.463,7.085 -3.479,7.097 -3.493,7.109 -3.509,7.121 -3.694,7.266 -3.882,7.4 -4.072,7.521 -4.074,7.522 -4.077,7.524 -4.08,7.526 -4.805,7.987 -5.555,8.266 -6.254,8.339 -5.1,8.494 -3.93,8.374 -2.833,7.995 -2.824,7.992 -2.814,7.989 -2.805,7.986 -2.72,7.956 -2.635,7.924 -2.551,7.891 -2.53,7.883 -2.508,7.874 -2.487,7.866 -2.409,7.834 -2.331,7.801 -2.254,7.767 -2.227,7.755 -2.2,7.743 -2.173,7.731 -2.101,7.698 -2.028,7.664 -1.957,7.628 -1.925,7.613 -1.894,7.596 -1.863,7.58 -1.796,7.546 -1.729,7.511 -1.662,7.475 -1.624,7.453 -1.586,7.431 -1.548,7.409 -1.49,7.375 -1.431,7.342 -1.374,7.307 c 0.003,-0.001 0.005,-0.003 0.008,-0.004 0,-0.001 0,-0.001 0,-0.001 m -1.78,-0.694 c 0.577,-0.533 1.089,-1.169 1.525,-1.89 0,0 -2.065,-0.617 -2.078,-0.621 -0.332,0.752 -0.693,1.433 -1.073,2.025 l 1.626,0.486 z M -6.828,8.19 C -5.735,8.269 -4.437,7.743 -3.284,6.729 -3.361,6.706 -4.861,6.259 -4.861,6.259 -5.546,7.295 -6.241,7.968 -6.828,8.19 M -7.316,8.105 c 0.589,0.079 1.453,-0.631 2.298,-1.894 -0.034,-0.009 -1.529,-0.456 -1.591,-0.474 0,0 -0.664,2.224 -0.707,2.368 M -7.465,8.057 c 0.049,-0.165 0.666,-2.229 0.706,-2.365 0,0 -1.427,-0.426 -1.59,-0.475 0.014,1.519 0.347,2.583 0.884,2.84 M -7.92,7.865 C -8.29,7.359 -8.501,6.414 -8.507,5.17 -8.603,5.141 -9.853,4.768 -10.082,4.7 -9.674,6.18 -8.878,7.333 -7.92,7.865 M -8.514,7.648 c -0.78,-0.65 -1.41,-1.711 -1.749,-3.002 -0.079,-0.024 -1.453,-0.434 -1.735,-0.518 0.732,1.55 1.964,2.782 3.484,3.52 M 0.244,5.975 C 0.255,5.963 0.266,5.951 0.277,5.939 0.314,5.897 0.351,5.854 0.388,5.811 0.498,5.682 0.606,5.55 0.709,5.413 0.513,5.355 -1.354,4.798 -1.464,4.765 -1.896,5.484 -2.403,6.121 -2.973,6.66 c 0,0 1.675,0.5 1.78,0.531 0.003,0.001 0.005,0.002 0.006,0.002 0.531,-0.346 1.009,-0.755 1.431,-1.218 m 0.6,-0.746 C 1.289,4.594 1.631,3.898 1.861,3.156 1.831,3.147 -0.444,2.468 -0.444,2.468 -0.682,3.234 -0.997,3.959 -1.383,4.626 -1.208,4.678 0.698,5.248 0.807,5.28 0.808,5.28 0.808,5.281 0.809,5.281 0.82,5.264 0.832,5.246 0.844,5.229 m 1.212,-2.177 0.002,10e-4 -0.045,0.149 -10e-4,0 C 1.776,3.963 1.425,4.677 0.968,5.328 L 0.969,5.329 0.905,5.418 0.873,5.463 0.872,5.462 c -0.516,0.7 -1.143,1.301 -1.865,1.789 l 0.004,10e-4 -0.142,0.092 -0.03,0.019 -0.002,0 c -1.847,1.179 -4.1,1.506 -6.201,0.902 L -7.366,8.27 -7.439,8.245 -7.515,8.225 -7.514,8.221 C -9.602,7.574 -11.307,6.065 -12.205,4.066 l -0.002,-10e-4 -0.015,-0.032 -0.068,-0.155 0.004,10e-4 c -0.336,-0.805 -0.531,-1.651 -0.578,-2.518 l -10e-4,-10e-4 -0.002,-0.055 -0.006,-0.11 0.003,10e-4 c -0.027,-0.786 0.07,-1.567 0.285,-2.325 0.017,0.006 0.035,0.013 0.052,0.019 0.032,0.012 0.063,0.024 0.095,0.037 -0.186,0.659 -0.282,1.335 -0.282,2.018 0,0.099 0.003,0.199 0.007,0.298 0.033,0.01 2.191,0.654 2.191,0.654 l 10e-4,10e-4 c 0.04,-0.706 0.157,-1.421 0.347,-2.13 0.005,0.002 0.011,0.004 0.016,0.006 0.024,0.009 0.048,0.017 0.072,0.026 0.02,0.007 0.04,0.014 0.06,0.022 -0.188,0.707 -0.303,1.419 -0.34,2.121 l 2.1,0.628 c 0.112,-0.645 0.264,-1.311 0.45,-1.984 0.011,0.003 0.021,0.006 0.032,0.01 0.002,0.001 0.004,0.001 0.006,0.002 0.038,0.012 0.075,0.024 0.112,0.036 -0.186,0.673 -0.337,1.337 -0.449,1.981 0.124,0.037 1.953,0.583 2.089,0.624 0,0 0.664,-2.226 0.668,-2.239 0,0 -0.117,-0.035 -0.296,-0.088 l 0,0 c 0.01,-0.05 0.005,-0.105 -0.013,-0.167 l 0,0 c 0.194,0.058 0.331,0.099 0.354,0.105 l 0.409,-1.371 0,0 c 0.002,0 0.003,0.001 0.004,0.002 0.044,0.025 0.089,0.053 0.134,0.083 -0.185,0.619 -0.397,1.328 -0.398,1.331 0,0 2.118,0.632 2.226,0.665 0.208,-0.718 0.375,-1.427 0.5,-2.114 0,0 0,0 0,-0.001 0.001,-0.001 0.002,-0.002 0.002,-0.003 0.02,-0.024 0.041,-0.048 0.064,-0.07 0.026,-0.025 0.054,-0.049 0.087,-0.069 0.063,-0.04 0.132,-0.069 0.209,-0.087 l 1.927,0.576 c 0.004,-0.101 0.007,-0.202 0.008,-0.301 0,-0.064 -0.001,-0.127 -0.001,-0.19 -0.001,-0.032 -0.001,-0.065 -0.002,-0.096 -0.002,-0.064 -0.005,-0.127 -0.008,-0.189 l 0,0 c 0,-0.001 0,-0.002 0.001,-0.002 0.035,-0.153 0.077,-0.303 0.122,-0.45 0.003,0.031 0.007,0.061 0.01,0.092 0.001,0.022 0.003,0.044 0.004,0.065 0.006,0.068 0.011,0.135 0.015,0.203 0.006,0.092 0.009,0.185 0.012,0.279 0,0.029 0,0.059 10e-4,0.088 0.001,0.052 0.002,0.103 0.002,0.156 0,0.015 -10e-4,0.03 -10e-4,0.046 0,0.114 -0.003,0.229 -0.007,0.345 L 2.18,0.488 C 2.126,-0.385 1.922,-1.235 1.569,-2.04 c 0,0 -0.703,-0.21 -1.232,-0.368 0.022,-0.048 0.044,-0.096 0.066,-0.143 0.45,0.134 0.98,0.293 1.073,0.32 -0.186,-0.393 -0.404,-0.766 -0.652,-1.117 0,0 0,0 0,0 0.03,-0.051 0.06,-0.103 0.09,-0.152 0.297,0.413 0.557,0.858 0.77,1.331 l 0.001,10e-4 0.014,0.033 0.069,0.155 -0.005,-0.002 c 0.337,0.804 0.532,1.65 0.579,2.518 l 10e-4,0 0.002,0.056 0.006,0.11 L 2.349,0.701 C 2.374,1.496 2.276,2.286 2.056,3.052"
             style="fill:#64b7e3;fill-opacity:1;fill-rule:nonzero;stroke:none"
             id="path2984" />
        </g>
        <g
           id="g2986"
           transform="translate(499.0529,33.8941)">
          <path
             d="m 0,0 c -0.105,-0.156 -0.406,-0.371 -1.174,-0.627 -1.615,-0.538 -0.897,0.987 -1.436,1.616 -0.538,0.627 -1.884,-1.795 -2.871,-1.616 -0.987,0.18 0.628,1.077 0,1.705 -0.628,0.628 -7.907,-2.722 -10.696,-3.512 -0.011,-0.003 -0.023,-0.007 -0.034,-0.01 0.05,-0.075 0.1,-0.151 0.143,-0.227 2.51,0.909 5.414,1.892 9.459,2.852 -0.18,-0.628 -1.206,-3.5 -0.308,-3.141 0.897,0.359 3.141,1.526 3.141,1.526 0,0 -0.718,-1.705 0.09,-1.885 0.807,-0.179 2.782,1.974 3.14,1.705 0.36,-0.269 1.077,-3.23 2.782,-3.32 0,0 -2.099,2.267 -2.236,4.934"
             style="fill:#64b7e3;fill-opacity:1;fill-rule:nonzero;stroke:none"
             id="path2988" />
        </g>
        <g
           id="g2990"
           transform="translate(466.9026,30.8441)">
          <path
             d="m 0,0 c -0.847,1.834 1.808,4.959 6.261,6.801 4.452,1.84 8.606,2.141 11.346,0.514 0,0 1.448,0.698 -1.724,1.479 C 11.687,9.828 2.602,8.076 -2.871,4.397 -8.345,0.718 -4.756,-4.576 5.474,-2.781 9.676,-2.079 12.472,-0.927 16.082,0.379 16.04,0.455 15.989,0.531 15.939,0.606 13.178,-0.172 1.408,-3.05 0,0"
             style="fill:#64b7e3;fill-opacity:1;fill-rule:nonzero;stroke:none"
             id="path2992" />
        </g>
      </g>
    </g>
  </g>
</svg>
